<?xml version="1.0" encoding="utf-8"?>
<!-- Generator: Adobe Illustrator 21.1.0, SVG Export Plug-In . SVG Version: 6.00 Build 0)  -->
<svg version="1.1" id="Layer_1" xmlns="http://www.w3.org/2000/svg" xmlns:xlink="http://www.w3.org/1999/xlink" x="0px" y="0px"
	 width="647.6px" height="465.7px" viewBox="0 0 647.6 465.7" style="enable-background:new 0 0 647.6 465.7;" xml:space="preserve"
	>
<style type="text/css">
	.st0{fill:#FFFFFF;}
</style>
<g>
	<polygon class="st0" points="219.5,59.4 219.5,109.7 379.5,217.7 379.5,167.3 	"/>
	<polygon class="st0" points="428.1,143.2 428.1,193.5 379.5,217.7 379.5,167.3 	"/>
	<polygon class="st0" points="405.4,75.5 405.4,130.6 358.5,98.8 	"/>
	<polygon class="st0" points="373,0 373,45.1 320.9,73.5 280.3,46.1 	"/>
</g>
<g>
	<g>
		<path class="st0" d="M0,270.8h71.5V295H26.3v17h42.1v23H26.3v35.7H0V270.8z"/>
		<path class="st0" d="M110.2,321v-0.3c0-28.7,22.2-52,51.7-52s51.5,23,51.5,51.7v0.3c0,28.7-22.2,52-51.7,52S110.2,349.8,110.2,321
			z M186.2,321v-0.3c0-14.6-9.9-28-24.5-28s-24.4,13.3-24.4,27.7v0.3c0,14.4,10,28,24.6,28C176.5,348.8,186.2,335.4,186.2,321z"/>
		<path class="st0" d="M255.1,270.8H300c14.5,0,24.6,4,30.9,10.7c5.6,5.9,8.4,13.4,8.4,23.3v0.3c0,15.4-7.7,25.6-19.5,30.9
			l21.7,34.9h-30.3L293,340.5h-11.7v30.3H255V270.8H255.1z M298.9,318.8c8.8,0,14.1-4.6,14.1-11.9v-0.2c0-8-5.6-12-14.2-12h-17.4
			v24.1H298.9z"/>
		<path class="st0" d="M403,295h-28.4v-24.3h83.2V295h-28.5v75.7H403L403,295L403,295z"/>
		<path class="st0" d="M497.2,270.8h26.3v100h-26.3L497.2,270.8L497.2,270.8z"/>
		<path class="st0" d="M563.3,352.2l16.2-16.3c8.8,8.8,15.8,14.5,26.8,14.5c9.4,0,15-3.5,15-7.8v-0.3c0-4.3-4.2-7.7-17.9-9.1
			c-20.7-2.2-38.1-11.5-38.1-31.9v-0.3c0-18.6,14-32,36.8-32c16.1,0,29.7,4.6,42.1,17.3l-16.8,17.3c-8.3-9.9-18.3-12.3-26-11.6
			c-6.4,0.5-9.5,2.7-9.5,6.4v0.3c0,4.6,3.3,7.5,16.9,9c21.1,2.3,38.8,11.3,38.8,31.9v0.3c0,20.4-18,33-41.1,33
			C589.7,372.9,574.2,367.1,563.3,352.2z"/>
	</g>
	<g>
		<path class="st0" d="M149.3,436.2V436c0-15.7,11.5-29.6,28.7-29.6c9.6,0,15.6,2.8,21.3,7.6l-4.2,4.9c-4.4-3.8-9.3-6.5-17.4-6.5
			c-12.7,0-21.7,10.7-21.7,23.5v0.2c0,13.6,8.7,23.8,22.6,23.8c6.5,0,12.6-2.5,16.5-5.7V440h-17.4v-5.8h23.6V457
			c-5.3,4.7-13.3,8.7-23,8.7C160.4,465.6,149.3,452.6,149.3,436.2z"/>
		<path class="st0" d="M228.1,407.4h24.6c7,0,12.7,2.1,16.3,5.7c2.8,2.8,4.4,6.8,4.4,11.3v0.2c0,9.5-6.5,15-15.5,16.7l17.6,23.4h-8
			l-16.6-22.2h-16.3v22.2h-6.5L228.1,407.4L228.1,407.4z M252.1,436.6c8.6,0,14.7-4.4,14.7-11.8v-0.2c0-7-5.4-11.3-14.6-11.3h-17.7
			v23.3H252.1z"/>
		<path class="st0" d="M296.9,436.2V436c0-15.8,11.9-29.6,29.3-29.6s29.1,13.6,29.1,29.4v0.2c0,15.8-11.8,29.6-29.3,29.6
			C308.6,465.6,296.9,452.1,296.9,436.2z M348.6,436.2V436c0-13-9.5-23.6-22.6-23.6s-22.4,10.5-22.4,23.5v0.2
			c0,13,9.5,23.6,22.6,23.6C339.3,459.7,348.6,449.2,348.6,436.2z"/>
		<path class="st0" d="M380.3,440.7v-33.3h6.5v32.9c0,12.3,6.6,19.3,17.5,19.3c10.5,0,17.2-6.4,17.2-18.9v-33.3h6.5v32.8
			c0,16.7-9.6,25.3-23.9,25.3C389.9,465.6,380.3,456.9,380.3,440.7z"/>
		<path class="st0" d="M455.5,407.4h21.4c12.9,0,21.4,6.9,21.4,18.1v0.2c0,12.3-10.3,18.7-22.5,18.7h-13.9v20.2h-6.4V407.4z
			 M476.1,438.6c9.5,0,15.7-5.1,15.7-12.6v-0.2c0-8.2-6.1-12.4-15.4-12.4h-14.5v25.2H476.1z"/>
	</g>
</g>
</svg>
