<?xml version="1.0" encoding="utf-8"?>
<!-- Generator: Adobe Illustrator 21.1.0, SVG Export Plug-In . SVG Version: 6.00 Build 0)  -->
<svg version="1.1" id="Layer_1" xmlns="http://www.w3.org/2000/svg" xmlns:xlink="http://www.w3.org/1999/xlink" x="0px" y="0px"
	 width="935px" height="217.7px" viewBox="0 0 935 217.7" style="enable-background:new 0 0 935 217.7;" xml:space="preserve">
<style type="text/css">
	.st0{fill:#FFFFFF;}
</style>
<g>
	<g>
		<polygon class="st0" points="159.9,167.3 0,59.4 0,109.7 159.9,217.7 208.6,193.5 208.6,143.2 		"/>
		<polygon class="st0" points="185.9,130.6 185.9,75.5 138.9,98.8 		"/>
		<polygon class="st0" points="153.5,45.1 153.5,0 60.7,46.1 101.3,73.5 		"/>
	</g>
	<g>
		<g>
			<path class="st0" d="M287.4,6.5h71.5v24.3h-45.2v17h42.1v23h-42.1v35.7h-26.3V6.5z"/>
			<path class="st0" d="M397.6,56.8v-0.3c0-28.7,22.2-52,51.7-52s51.5,23,51.5,51.7v0.3c0,28.7-22.2,52-51.7,52
				S397.6,85.5,397.6,56.8z M473.6,56.8v-0.3c0-14.6-9.9-28-24.5-28s-24.4,13.3-24.4,27.7v0.3c0,14.4,10,28,24.6,28
				C463.9,84.5,473.6,71.2,473.6,56.8z"/>
			<path class="st0" d="M542.5,6.5h44.9c14.5,0,24.6,4,30.9,10.7c5.6,5.9,8.4,13.4,8.4,23.3v0.3c0,15.4-7.7,25.6-19.5,30.9
				l21.7,34.9h-30.3l-18.2-30.3h-11.7v30.3h-26.3V6.5H542.5z M586.3,54.5c8.8,0,14.1-4.6,14.1-11.9v-0.2c0-8-5.6-12-14.2-12h-17.4
				v24.1H586.3z"/>
			<path class="st0" d="M690.4,30.8H662V6.5h83.2v24.3h-28.5v75.7h-26.3V30.8L690.4,30.8z"/>
			<path class="st0" d="M784.6,6.5h26.3v100h-26.3V6.5L784.6,6.5z"/>
			<path class="st0" d="M850.7,88l16.2-16.3c8.8,8.8,15.8,14.5,26.8,14.5c9.4,0,15-3.5,15-7.8v-0.3c0-4.3-4.2-7.7-17.9-9.1
				c-20.7-2.2-38.1-11.5-38.1-31.9v-0.3c0-18.6,14-32,36.8-32c16.1,0,29.7,4.6,42.1,17.3l-16.8,17.3c-8.3-9.9-18.3-12.3-26-11.6
				c-6.4,0.5-9.5,2.7-9.5,6.4v0.3c0,4.6,3.3,7.5,16.9,9c21.1,2.3,38.8,11.3,38.8,31.9v0.3c0,20.4-18,33-41.1,33
				C877.1,108.7,861.6,102.9,850.7,88z"/>
		</g>
		<g>
			<path class="st0" d="M287.4,172v-0.2c0-15.7,11.5-29.6,28.7-29.6c9.6,0,15.6,2.8,21.3,7.6l-4.2,4.9c-4.4-3.8-9.3-6.5-17.4-6.5
				c-12.7,0-21.7,10.7-21.7,23.5v0.2c0,13.6,8.7,23.8,22.6,23.8c6.5,0,12.6-2.5,16.5-5.7v-14.2h-17.4V170h23.6v22.8
				c-5.3,4.7-13.3,8.7-23,8.7C298.5,201.4,287.4,188.4,287.4,172z"/>
			<path class="st0" d="M366.2,143.2h24.6c7,0,12.7,2.1,16.3,5.7c2.8,2.8,4.4,6.8,4.4,11.3v0.2c0,9.5-6.5,15-15.5,16.7l17.6,23.4h-8
				L389,178.3h-16.3v22.2h-6.5L366.2,143.2L366.2,143.2z M390.2,172.4c8.6,0,14.7-4.4,14.7-11.8v-0.2c0-7-5.4-11.3-14.6-11.3h-17.7
				v23.3H390.2z"/>
			<path class="st0" d="M435,172v-0.2c0-15.8,11.9-29.6,29.3-29.6s29.1,13.6,29.1,29.4v0.2c0,15.8-11.8,29.6-29.3,29.6
				C446.7,201.4,435,187.8,435,172z M486.7,172v-0.2c0-13-9.5-23.6-22.6-23.6s-22.4,10.5-22.4,23.5v0.2c0,13,9.5,23.6,22.6,23.6
				C477.4,195.5,486.7,185,486.7,172z"/>
			<path class="st0" d="M518.4,176.5v-33.3h6.5v32.9c0,12.3,6.6,19.3,17.5,19.3c10.5,0,17.2-6.4,17.2-18.9v-33.3h6.5V176
				c0,16.7-9.6,25.3-23.9,25.3C528,201.4,518.4,192.7,518.4,176.5z"/>
			<path class="st0" d="M593.6,143.2H615c12.9,0,21.4,6.9,21.4,18.1v0.2c0,12.3-10.3,18.7-22.5,18.7H600v20.2h-6.4V143.2z
				 M614.2,174.4c9.5,0,15.7-5.1,15.7-12.6v-0.2c0-8.2-6.1-12.4-15.4-12.4H600v25.2H614.2z"/>
		</g>
	</g>
</g>
</svg>
