<?xml version="1.0" encoding="utf-8"?>
<!-- Generator: Adobe Illustrator 21.1.0, SVG Export Plug-In . SVG Version: 6.00 Build 0)  -->
<svg version="1.1" id="Layer_1" xmlns="http://www.w3.org/2000/svg" xmlns:xlink="http://www.w3.org/1999/xlink" x="0px" y="0px"
	 width="872.9px" height="197px" viewBox="0 0 872.9 197" style="enable-background:new 0 0 872.9 197;" xml:space="preserve">
<style type="text/css">
	.st0{fill:#3280AB;}
	.st1{fill:#245892;}
</style>
<g>
	<polygon class="st0" points="0,56.4 0,100.9 141.1,196.1 141.1,151.6 	"/>
	<polygon class="st1" points="184,130.4 184,174.8 141.1,196.1 141.1,151.6 	"/>
	<polygon class="st1" points="164,70.7 164,119.3 122.6,91.3 	"/>
	<polygon class="st1" points="135.4,4.1 135.4,43.8 89.4,68.9 53.6,44.8 	"/>
</g>
<g>
	<g>
		<path class="st1" d="M225.3,2h71.5v24.3h-45.2v17h42.1v23h-42.1V102h-26.3V2z"/>
		<path class="st1" d="M335.5,52.3V52c0-28.7,22.2-52,51.7-52s51.5,23,51.5,51.7V52c0,28.7-22.2,52-51.7,52S335.5,81,335.5,52.3z
			 M411.5,52.3V52c0-14.6-9.9-28-24.5-28s-24.4,13.3-24.4,27.7V52c0,14.4,10,28,24.6,28C401.8,80,411.5,66.7,411.5,52.3z"/>
		<path class="st1" d="M480.4,2h44.9c14.5,0,24.6,4,30.9,10.7c5.6,5.9,8.4,13.4,8.4,23.3v0.3c0,15.4-7.7,25.6-19.5,30.9l21.7,34.9
			h-30.3l-18.2-30.3h-11.7v30.3h-26.3V2H480.4z M524.2,50c8.8,0,14.1-4.6,14.1-11.9v-0.2c0-8-5.6-12-14.2-12h-17.4V50H524.2z"/>
		<path class="st1" d="M628.3,26.3h-28.4V2h83.2v24.3h-28.5V102h-26.3L628.3,26.3L628.3,26.3z"/>
		<path class="st1" d="M722.5,2h26.3v100h-26.3L722.5,2L722.5,2z"/>
		<path class="st1" d="M788.6,83.5l16.2-16.3c8.8,8.8,15.8,14.5,26.8,14.5c9.4,0,15-3.5,15-7.8v-0.3c0-4.3-4.2-7.7-17.9-9.1
			C808,62.3,790.6,53,790.6,32.6v-0.3c0-18.6,14-32,36.8-32c16.1,0,29.7,4.6,42.1,17.3l-16.8,17.3c-8.3-9.9-18.3-12.3-26-11.6
			c-6.4,0.5-9.5,2.7-9.5,6.4V30c0,4.6,3.3,7.5,16.9,9c21.1,2.3,38.8,11.3,38.8,31.9v0.3c0,20.4-18,33-41.1,33
			C815,104.2,799.5,98.4,788.6,83.5z"/>
	</g>
	<g>
		<path class="st1" d="M225.3,167.5v-0.2c0-15.7,11.5-29.6,28.7-29.6c9.6,0,15.6,2.8,21.3,7.6l-4.2,4.9c-4.4-3.8-9.3-6.5-17.4-6.5
			c-12.7,0-21.7,10.7-21.7,23.5v0.2c0,13.6,8.7,23.8,22.6,23.8c6.5,0,12.6-2.5,16.5-5.7v-14.2h-17.4v-5.8h23.6v22.8
			c-5.3,4.7-13.3,8.7-23,8.7C236.4,196.9,225.3,183.9,225.3,167.5z"/>
		<path class="st1" d="M304.1,138.7h24.6c7,0,12.7,2.1,16.3,5.7c2.8,2.8,4.4,6.8,4.4,11.3v0.2c0,9.5-6.5,15-15.5,16.7l17.6,23.4h-8
			l-16.6-22.2h-16.3V196h-6.5V138.7L304.1,138.7z M328.1,167.9c8.6,0,14.7-4.4,14.7-11.8v-0.2c0-7-5.4-11.3-14.6-11.3h-17.7v23.3
			H328.1z"/>
		<path class="st1" d="M372.9,167.5v-0.2c0-15.8,11.9-29.6,29.3-29.6s29.1,13.6,29.1,29.4v0.2c0,15.8-11.8,29.6-29.3,29.6
			C384.6,196.9,372.9,183.3,372.9,167.5z M424.6,167.5v-0.2c0-13-9.5-23.6-22.6-23.6s-22.4,10.5-22.4,23.5v0.2
			c0,13,9.5,23.6,22.6,23.6C415.3,191,424.6,180.5,424.6,167.5z"/>
		<path class="st1" d="M456.3,172v-33.3h6.5v32.9c0,12.3,6.6,19.3,17.5,19.3c10.5,0,17.2-6.4,17.2-18.9v-33.3h6.5v32.8
			c0,16.7-9.6,25.3-23.9,25.3C465.9,196.9,456.3,188.2,456.3,172z"/>
		<path class="st1" d="M531.5,138.7h21.4c12.9,0,21.4,6.9,21.4,18.1v0.2c0,12.3-10.3,18.7-22.5,18.7h-13.9v20.2h-6.4V138.7z
			 M552.1,169.9c9.5,0,15.7-5.1,15.7-12.6v-0.2c0-8.2-6.1-12.4-15.4-12.4h-14.5v25.2H552.1z"/>
	</g>
</g>
</svg>
